# xmcd CD database file
#
# Track frame offsets:
#	150
#	11381
#	20821
#	32124
#	43604
#	51368
#	59350
#	77110
#	86641
#	95499
#	104049
#	111612
#	121376
#	133175
#	145785
#	157151
#	167466
#	176617
#	186399
#	194893
#	204866
#	216487
#	227953
#	240302
#	250193
#
# Disc length: 3461 seconds
#
# Revision: 0
# Processed by: cddbd v1.5.2PL0 Copyright (c) Steve Scherf et al.
# Submitted via: CDex 1.70beta2
#
DISCID=770d8319
DTITLE=Johnny Cash - The Troubadour [CD 3/3)
DYEAR=2011
DGENRE=Country
TTITLE0=Cry! cry! cry!
TTITLE1=I got stripes
TTITLE2=Seasons of my heart
TTITLE3=Transfusion blues
TTITLE4=If the good Lord's willing (and the Creeks don't rise)
TTITLE5=The wreck of the old '97
TTITLE6=Boss Jack
TTITLE7=The caretaker
TTITLE8=I want to go home
TTITLE9=Drink to me
TTITLE10=Come in stranger
TTITLE11=Great speckled bird
TTITLE12=Thanks a lot
TTITLE13=Next in line
TTITLE14=Clementine
TTITLE15=These things shall pass
TTITLE16=I will miss you when you go
TTITLE17=The man on the hill
TTITLE18=Swing low, sweet chariot
TTITLE19=Just one more
TTITLE20=I still miss someone
TTITLE21=Don't step on mother's roses
TTITLE22=My grandfather's clock
TTITLE23=Goodbye little darlin' goodbye
TTITLE24=I'd just be fool enough (to fall)
EXTD=YEAR: 2011
EXTT0=
EXTT1=
EXTT2=
EXTT3=
EXTT4=
EXTT5=
EXTT6=
EXTT7=
EXTT8=
EXTT9=
EXTT10=
EXTT11=
EXTT12=
EXTT13=
EXTT14=
EXTT15=
EXTT16=
EXTT17=
EXTT18=
EXTT19=
EXTT20=
EXTT21=
EXTT22=
EXTT23=
EXTT24=
PLAYORDER=
